<?xml version="1.0" encoding="utf-8"?>
<!-- Generator: Adobe Illustrator 19.0.0, SVG Export Plug-In . SVG Version: 6.00 Build 0)  -->
<svg version="1.1" id="Layer_1" xmlns="http://www.w3.org/2000/svg" xmlns:xlink="http://www.w3.org/1999/xlink" x="0px" y="0px"
	 viewBox="0 0 128 128" style="enable-background:new 0 0 128 128;" xml:space="preserve">
<style type="text/css">
	.st0{fill:#2FC0F2;}
	.st1{fill:#28AACE;}
	.st2{fill:#1C89A3;}
	.st3{fill:#F7B541;}
	.st4{fill:#FFFFFF;}
	.st5{fill-rule:evenodd;clip-rule:evenodd;fill:#9C5C8F;}
	.st6{fill-rule:evenodd;clip-rule:evenodd;fill:#FFFFFF;}
	.st7{fill-rule:evenodd;clip-rule:evenodd;}
</style>
<circle id="XMLID_9_" class="st0" cx="63.6" cy="52.4" r="46.9"/>
<path id="XMLID_8_" class="st1" d="M63.6,85.2L74,98.1c0,0,29.6-5.4,35.9-38L87.4,30.9L63.6,85.2z"/>
<g id="XMLID_11_">
	<g id="XMLID_16_">
		<path id="XMLID_7_" class="st2" d="M79.3,28.3H63.9h0H48.5c0,0-2.4,4.1-5.6,4.5c-11.4,39.6,21,49.4,21,49.4h0
			c0,0,32.4-9.8,21-49.4C81.6,32.4,79.3,28.3,79.3,28.3z"/>
		<path id="XMLID_6_" class="st3" d="M77.6,30.8h-14h0h-14c0,0-2.1,3.7-5.1,4.1C34.1,70.6,63.6,79.5,63.6,79.5h0
			c0,0,29.5-8.8,19.1-44.6C79.8,34.5,77.6,30.8,77.6,30.8z"/>
		<path id="XMLID_17_" class="st4" d="M87.6,31.9l-0.3-0.9l-1.1-0.1c-2.1-0.2-4.1-3-4.7-3.9l-0.5-0.8H46.2l-0.5,0.8
			c-0.6,0.9-2.6,3.7-4.7,3.9l-1.1,0.1l-0.3,0.9C27,74.5,62.8,85,63.2,85.1l0.5,0.1l0.5-0.1C64.5,85,100.1,74.1,87.6,31.9z
			 M63.6,82.2c-4.3-1.5-31.4-12.3-21.1-48.8c2.7-0.8,4.7-3.2,5.6-4.5h31c0.9,1.3,2.9,3.7,5.6,4.5C95,69.9,67.9,80.7,63.6,82.2z"/>
	</g>
	<path id="XMLID_12_" class="st4" d="M71.5,47h-1.1c0-5-2.9-7.5-6.8-7.5c-3.9,0-6.8,2.5-6.8,7.5h-1.1c-1.6,0-2.7,1.1-2.7,2.7v10
		c0,1.6,1.1,4.2,2.7,4.2h15.8c1.6,0,3.5-2.7,3.5-4.2v-10C75,48.1,73.1,47,71.5,47z M65.4,60h-3.6l0.7-5.1c-0.7-0.4-1.2-1.3-1.2-2.2
		c0-1.3,1-2.4,2.3-2.4c1.3,0,2.3,1,2.3,2.3c0,0.9-0.5,1.9-1.2,2.3L65.4,60z M58.9,47c0-3,2.3-5.4,4.7-5.4c2.3,0,4.7,2.4,4.7,5.4
		H58.9z"/>
</g>
<g id="XMLID_31_">
	<path id="XMLID_29_" class="st5" d="M29.5,109.6c0.3-0.8,1.1-1.3,1.9-1.3c6.2,0,12.3,0,18.5,0c0.5,0,1.1,0.2,1.5,0.5
		c0.5,0.4,0.7,1,0.7,1.6c0,2.4,0,4.7,0,7.1c0,1.1-0.9,2-2,2.1c-2.2,0-4.5,0-6.7,0c0.3,0.7,0.6,1.5,0.9,2.2c-1.3-0.7-2.7-1.5-4-2.2
		c-3,0-5.9,0-8.9,0c-1.1,0-2-1-2-2c0-2.3,0-4.6,0-6.9C29.4,110.3,29.4,110,29.5,109.6L29.5,109.6z"/>
	<path id="XMLID_43_" class="st6" d="M38.6,109.8c0.3-0.4,1-0.2,1.2,0.2c0.1,0.2,0.1,0.5,0,0.7c-0.5,0.9-0.7,2-0.9,3
		c-0.2,1.3-0.4,2.7-0.3,4c0,0.3-0.1,0.8-0.5,0.8c-0.4,0.1-0.7-0.2-0.9-0.4c-1-1.1-1.6-2.5-2-3.9c-0.4,0.8-0.8,1.6-1.2,2.5
		c-0.3,0.6-0.6,1.1-1,1.6c-0.2,0.2-0.5,0.4-0.8,0.2c-0.4-0.3-0.5-0.8-0.6-1.3c-0.6-2.1-0.9-4.2-1.3-6.3c-0.1-0.4,0.1-0.8,0.4-0.9
		c0.3-0.1,0.6-0.1,0.9,0.1c0.2,0.1,0.2,0.4,0.2,0.6c0.2,1.6,0.5,3.3,0.9,4.9c0.7-1.3,1.3-2.6,2-3.8c0.1-0.2,0.2-0.4,0.4-0.5
		c0.2-0.2,0.6-0.1,0.8,0.1c0.2,0.2,0.2,0.4,0.3,0.7c0.2,1.1,0.5,2.1,0.9,3.1c0.2-1.5,0.4-3,0.9-4.5
		C38.3,110.4,38.4,110.1,38.6,109.8L38.6,109.8z M42.4,110.6c0.7-0.1,1.5,0.2,2,0.7c0.4,0.5,0.6,1,0.7,1.6c0.1,1-0.1,2.1-0.6,3
		c-0.3,0.5-0.6,1-1.2,1.3c-0.8,0.5-1.8,0.4-2.5-0.1c-0.6-0.4-0.9-1.1-1-1.7c-0.3-1.5,0.2-3.2,1.3-4.3
		C41.5,110.9,41.9,110.7,42.4,110.6L42.4,110.6z M42.5,112.2c-0.3,0.1-0.6,0.4-0.8,0.7c-0.5,0.8-0.6,1.8-0.2,2.6
		c0.1,0.2,0.3,0.4,0.5,0.5c0.3,0,0.5-0.1,0.7-0.3c0.4-0.4,0.6-0.9,0.7-1.5c0.1-0.6,0.1-1.3-0.3-1.8
		C43.1,112.2,42.8,112.1,42.5,112.2L42.5,112.2z M48.2,110.6c0.7-0.1,1.5,0.1,2,0.7c0.4,0.5,0.7,1.1,0.8,1.8c0.1,1-0.1,2-0.5,2.9
		c-0.3,0.5-0.7,1-1.2,1.4c-0.7,0.4-1.7,0.4-2.4,0c-0.5-0.3-0.8-0.8-1-1.3c-0.5-1.6-0.1-3.5,1.1-4.7
		C47.2,110.9,47.7,110.7,48.2,110.6L48.2,110.6z M48.3,112.2c-0.4,0.1-0.6,0.5-0.8,0.8c-0.4,0.8-0.5,1.7-0.1,2.5
		c0.1,0.2,0.3,0.4,0.6,0.5c0.3,0,0.5-0.2,0.7-0.4c0.4-0.4,0.6-1,0.7-1.6c0.1-0.6,0-1.1-0.3-1.6C48.9,112.2,48.6,112.1,48.3,112.2
		L48.3,112.2z"/>
	<path id="XMLID_32_" class="st7" d="M55.9,110.8c0.6-0.1,1.3-0.1,1.9,0c0,0.5,0,1,0,1.5c-0.5-0.1-1.1-0.2-1.6,0
		c-0.6,0.3-0.9,0.9-0.9,1.6c0,0.6,0.2,1.3,0.7,1.7c0.5,0.3,1.2,0.3,1.7,0.1c0,0.5,0,1,0,1.5c-0.7,0.2-1.6,0.2-2.3-0.1
		c-0.9-0.3-1.6-1.1-1.8-2c-0.2-0.7-0.2-1.4-0.1-2.1C53.9,112,54.8,111.1,55.9,110.8L55.9,110.8z M60.5,110.8c0.8-0.1,1.6,0,2.2,0.5
		c0.6,0.5,0.9,1.2,1,1.9c0.1,0.8,0.1,1.6-0.2,2.4c-0.2,0.7-0.6,1.3-1.3,1.5c-0.6,0.3-1.4,0.3-2.1,0.2c-0.6-0.1-1.2-0.6-1.5-1.1
		c-0.4-0.8-0.5-1.7-0.5-2.5c0-0.7,0.2-1.5,0.7-2.1C59.3,111.1,59.9,110.8,60.5,110.8L60.5,110.8z M60.7,112.2
		c-0.3,0.1-0.5,0.4-0.6,0.7c-0.2,0.6-0.1,1.2-0.1,1.8c0,0.3,0.1,0.7,0.3,1c0.3,0.4,0.9,0.3,1.2-0.1c0.2-0.2,0.2-0.5,0.3-0.8
		c0.1-0.5,0.1-1,0-1.6c-0.1-0.3-0.1-0.6-0.4-0.9C61.3,112.2,61,112.1,60.7,112.2L60.7,112.2z M90.6,110.9c0.6-0.2,1.3-0.1,2,0
		c0,0.5,0,1,0,1.5c-0.5-0.1-1-0.2-1.5,0c-0.6,0.3-0.9,0.9-0.9,1.4c-0.1,0.7,0.1,1.4,0.7,1.8c0.5,0.4,1.2,0.3,1.8,0.1
		c0,0.5,0,1,0,1.5c-0.8,0.2-1.7,0.2-2.4-0.1c-0.8-0.4-1.5-1.1-1.7-2c-0.2-0.7-0.2-1.4,0-2.1C88.6,112,89.5,111.1,90.6,110.9
		L90.6,110.9z M64.7,110.9c0.7,0,1.4,0,2.2,0c0.3,1.2,0.5,2.3,0.7,3.5c0.2-1.2,0.5-2.3,0.8-3.5c0.7,0,1.5,0,2.2,0
		c0.3,2.1,0.6,4.2,0.9,6.3c-0.6,0-1.1,0-1.7,0c-0.2-1.4-0.3-2.9-0.5-4.3c-0.3,1.4-0.7,2.9-1.1,4.3c-0.4,0-0.8,0-1.2,0
		c-0.4-1.4-0.7-2.9-1.1-4.3c-0.1,1.4-0.3,2.9-0.4,4.3c-0.5,0-1.1,0-1.6,0C64.2,115.1,64.4,113,64.7,110.9L64.7,110.9z M72.4,110.9
		c0.7,0,1.4,0,2.2,0c0.3,1.2,0.5,2.3,0.7,3.5c0.2-1.2,0.5-2.3,0.8-3.5c0.7,0,1.5,0,2.2,0c0.3,2.1,0.6,4.2,0.9,6.3
		c-0.6,0-1.1,0-1.7,0c-0.2-1.4-0.3-2.9-0.5-4.3c-0.4,1.4-0.7,2.9-1,4.3c-0.4,0-0.8,0-1.2,0c-0.4-1.5-0.7-2.9-1.1-4.4
		c-0.1,1.5-0.3,2.9-0.4,4.4c-0.5,0-1.1,0-1.6,0C71.9,115.1,72.2,113,72.4,110.9L72.4,110.9z M79.6,110.9c1.2,0,2.3,0,3.5,0
		c0,0.4,0,0.9,0,1.3c-0.6,0-1.2,0-1.7,0c0,0.4,0,0.8,0,1.2c0.5,0,1,0,1.5,0c0,0.4,0,0.9,0,1.3c-0.5,0-1,0-1.5,0c0,0.4,0,0.8,0,1.2
		c0.6,0,1.2,0,1.8,0c0,0.4,0,0.9,0,1.3c-1.2,0-2.3,0-3.5,0C79.6,115.1,79.6,113,79.6,110.9L79.6,110.9z M83.6,110.9
		c0.7,0,1.4,0,2.2,0c0.7,0,1.4,0.2,1.9,0.7c0.5,0.4,0.6,1.1,0.4,1.7c-0.1,0.5-0.5,0.9-1,1.1c0.5,1,0.9,1.9,1.4,2.8
		c-0.6,0-1.2,0-1.8,0c-0.5-1-0.9-1.9-1.4-2.9c0,1,0,1.9,0,2.9c-0.6,0-1.1,0-1.7,0C83.6,115.1,83.6,113,83.6,110.9L83.6,110.9z
		 M85.3,112.1c0,0.5,0,1,0,1.5c0.3,0,0.6,0,0.9-0.2c0.3-0.2,0.3-0.7,0.1-1C86,112.2,85.6,112.1,85.3,112.1L85.3,112.1z M93,110.9
		c1.2,0,2.3,0,3.5,0c0,0.5,0,0.9,0,1.4c-0.6,0-1.2,0-1.8,0c0,0.4,0,0.8,0,1.2c0.5,0,1,0,1.5,0c0,0.4,0,0.9,0,1.3c-0.5,0-1,0-1.5,0
		c0,0.4,0,0.8,0,1.2c0.6,0,1.2,0,1.8,0c0,0.4,0,0.9,0,1.4c-1.2,0-2.3,0-3.5,0C93,115.1,93,113,93,110.9L93,110.9z"/>
</g>
</svg>
